<svg width="107" height="53" viewBox="0 0 107 53" fill="none" xmlns="http://www.w3.org/2000/svg">
<path d="M55.0511 16.3113C56.3901 16.2346 56.6441 16.1226 56.8793 15.505C57.2553 14.5174 57.7543 14.6042 57.7543 15.657C57.7543 16.6788 57.0905 17.1334 55.5986 17.1334C54.7438 17.1334 54.6023 17.2229 54.7238 17.6868C54.88 18.2833 54.5769 18.5605 53.2024 19.0777C51.963 19.5442 51.935 19.5416 51.6079 18.9314C51.2252 18.2174 51.4648 18.0131 52.685 18.0131C53.6028 18.0131 53.6772 17.947 53.5905 17.2068C53.499 16.426 53.5454 16.3976 55.0511 16.3113Z" fill="black"/>
<path d="M58.1541 20.7989C58.3702 20.2363 59.2225 20.223 59.2225 20.7821C59.2225 21.6209 58.0094 22.1333 56.4979 21.9332C55.2844 21.7725 54.9977 21.8361 54.4918 22.3783C54.4918 22.5145 53.3492 23.3848 53.3492 22.258C53.3492 21.5952 54.3584 21.2387 56.2351 21.2387C57.5197 21.2387 58.03 21.1217 58.1541 20.7989Z" fill="black"/>
<path d="M8.55004 13.256C11.1908 11.9155 12.237 10.2908 15.8211 9.20749C16.9048 8.87988 17.8707 8.48394 17.9675 8.32753C18.2721 7.8354 22.4451 7.98465 23.2584 8.51678C24.1055 9.07095 24.2759 9.98958 23.4683 9.64786C21.1399 8.66251 19.5345 8.52009 18.5494 9.21154C18.3878 9.32493 17.3967 9.65038 16.3469 9.93488C13.8534 10.6105 14.9848 10.302 8.09214 14.6407C2.74637 18.0055 1.07498 19.2878 1.07803 20.0224C1.08085 20.703 2.32793 21.4681 7.5789 24.0112C12.8041 26.5419 13.5853 27.0691 13.8425 28.2387C13.9475 28.7156 14.3228 29.2092 14.717 29.3885C15.2047 29.6103 15.4648 30.0405 15.6021 30.8523C15.7406 31.6708 16.1507 32.3427 17.0262 33.1855C21.3275 37.3262 41.2646 43.8295 44.5391 45.5443C47.0129 46.8398 45.4387 45.8926 56.8899 50.429C58.272 50.9766 60.3791 51.6296 61.5724 51.8802C63.455 52.2757 63.7735 52.2801 63.9789 51.9136C64.2059 51.5085 69.7011 47.9035 72.5952 46.9372C74.8863 46.172 76.3558 44.4029 76.882 44.4029C77.3066 44.4029 89.0477 38.5385 90.4565 38.5385C90.7673 38.5385 90.9388 38.2929 90.9388 37.848C90.9388 37.062 89.3699 35.6063 88.523 35.6063C88.2148 35.6063 87.7174 35.1579 87.3661 34.5635C86.923 33.8136 86.6164 33.576 86.2747 33.7176C86.0134 33.826 84.1477 34.5036 82.1287 35.2235C76.808 37.1206 76.2757 37.3781 75.4572 38.4495C74.4096 39.8209 73.5731 39.3999 73.6804 39.1983C74.2414 38.1438 73.9713 36.806 78.1642 35.4498C78.8102 35.2408 80.8586 34.5243 82.7161 33.8576C89.8081 31.3121 90.0526 31.2516 94.0525 31.0533C99.2294 30.7966 100.213 30.035 102.547 30.035C104.006 30.035 104.178 30.0926 103.86 30.4748C103.651 30.7262 103.011 30.9147 102.366 30.9147C100.547 30.9147 100.368 31.6543 94.9034 31.9062C90.0882 32.1281 89.4648 32.6656 87.7085 33.1773C86.7554 33.455 90.2164 35.5879 92.9945 36.435C96.0386 37.3632 97.2259 37.8551 97.5071 38.3045C98.013 39.1132 97.5248 39.2412 95.3881 38.8599C92.2855 38.3063 90.84 38.7626 81.929 43.1085C76.1008 45.9509 77.1353 45.0441 75.8821 46.1428C74.4079 47.4351 70.7806 48.4457 69.3542 49.5013C68.032 50.4797 65.8928 51.5325 64.7436 52.482C63.9736 53.1183 63.8888 53.1255 61.8069 52.7362C60.6278 52.5157 59.0684 52.0729 58.3416 51.7524C56.5501 50.9621 48.5941 47.9809 46.5948 47.3507C42.4235 46.0359 47.1343 47.2122 35.8758 43.1071C34.2607 42.5181 32.565 41.8431 32.1077 41.6069C31.1305 41.1022 30.2408 41.0501 30.0942 41.4891C29.9251 41.9956 28.9982 41.1775 27.3763 41.1775C26.8412 41.1775 26.2275 40.9657 26.0124 40.707C25.3488 39.9085 20.3985 37.7228 18.843 37.5413C17.7808 37.4174 17.1958 37.1667 16.728 36.6348C16.3723 36.2304 15.9552 35.8995 15.8011 35.8995C15.6469 35.8995 15.59 35.6356 15.6744 35.3131C15.7589 34.9905 15.685 34.7266 15.5103 34.7266C15.3356 34.7266 14.7255 34.3171 14.1545 33.8166C13.0915 32.8846 12.7693 31.7944 13.557 31.7944C14.2402 31.7944 14.2878 30.6215 12.5277 30.6215C11.8737 30.6215 10.1798 29.2535 10.1798 28.7254C10.1798 27.965 11.0164 27.5749 11.8416 27.9503C12.2615 28.1419 12.6752 28.2276 12.761 28.1419C13.1352 27.7683 11.7368 26.8378 8.36495 25.2168C1.49705 21.915 1.16825 21.7287 0.504395 20.7613C0.117691 20.1978 -0.0769424 19.5911 0.0282745 19.2771C0.280777 18.5234 5.65833 14.7238 8.55004 13.256ZM92.2069 37.6883C92.4224 37.9791 92.7607 38.0854 93.0967 37.9677C93.5808 37.7982 93.5901 37.7375 93.1839 37.4009C92.9338 37.1936 92.5334 37.0679 92.2942 37.1215C91.9483 37.1991 91.9304 37.3151 92.2069 37.6883ZM27.6531 40.2979C28.4614 40.6447 28.7488 40.6447 28.5341 40.2979C28.4343 40.1366 28.063 40.0139 27.7092 40.0252C27.0888 40.0451 27.0868 40.0549 27.6531 40.2979ZM20.1645 35.8995C20.1645 35.5118 19.2835 35.5118 19.2835 35.8995C19.2835 36.2873 20.1645 36.2872 20.1645 35.8995ZM14.462 33.0825C16.294 33.7845 15.2143 32.0876 14.3792 32.0876C13.8389 32.0876 13.9039 32.8687 14.462 33.0825Z" fill="black"/>
<path d="M60.5683 18.8674C59.6865 17.821 59.8033 17.3266 60.8395 17.72C61.3783 17.9246 61.6152 17.8834 61.8004 17.5529C62.117 16.9879 64.215 16.6135 64.215 17.122C64.215 17.3194 63.9507 17.55 63.6276 17.6344C62.9933 17.8 62.8633 18.162 63.334 18.4524C64.0095 18.8692 63.5757 19.2023 62.5962 19.0188C61.724 18.8554 61.5929 18.8987 61.7466 19.2988C62.0459 20.0774 61.3837 19.835 60.5683 18.8674Z" fill="black"/>
<path d="M17.9532 24.7191C16.7009 23.9843 11.3545 18.6113 11.3545 18.0876C11.3545 17.6195 13.3625 15.9605 13.9343 15.9564C14.2113 15.9543 15.2309 15.5403 16.2 15.0363C17.6683 14.2727 18.3917 14.0962 20.5398 13.9775C24.9694 13.7327 22.0288 13.5517 27.3364 10.092C28.5954 9.27139 30.0407 8.20173 30.5482 7.71494C31.9592 6.36153 34.5674 4.65488 35.8759 4.22879C37.6477 3.65189 38.5325 2.70211 40.2809 2.18745C43.1793 1.33442 43.8578 0.122762 46.8819 0.0338886C49.3574 -0.0387857 49.5892 0.561639 47.1826 0.812798C45.9753 0.938776 44.7742 1.33077 43.4573 2.02852C42.3884 2.59486 41.3399 3.0583 41.1272 3.0583C40.1594 3.0583 34.0566 6.46386 31.936 8.18732C27.9676 11.4126 24.5524 12.9595 23.1162 15.639C22.7176 16.3827 22.6964 18.4555 22.6607 19.3044C24.8417 19.9531 28.4996 20.983 30.7366 22.0447C36.6477 24.8498 48.5941 28.7804 53.496 30.9248C54.3036 31.2781 56.8912 32.204 59.2463 32.9825C64.5768 34.7446 71.8507 38.3643 73.2433 39.9477C74.9719 41.9133 75.7457 42.572 75.7457 43.0547C75.388 43.4119 74.4508 43.2108 73.3863 42.5484C72.2733 41.8559 68.3734 39.7473 64.6671 37.8342C61.805 36.3569 62.5169 37.1188 60.3305 35.9548C58.001 34.7147 54.507 33.5394 52.8065 33.4239C51.9743 33.3673 51.2935 33.37 51.2935 33.4298C51.2935 33.4896 51.69 33.7433 52.1745 33.9934C53.246 34.5467 53.3417 35.1025 52.3214 34.8469C51.5508 34.6538 51.3604 34.9692 51.914 35.522C52.5037 36.1107 51.8711 36.5617 50.6796 36.4022C49.9194 36.3004 49.4439 36.3846 49.2134 36.6619C48.8331 37.1194 47.4758 37.2263 47.4758 36.7988C47.4758 36.3982 48.6505 36.2802 48.6505 35.8796C48.6505 35.7292 49.2452 35.6062 49.972 35.6062C51.213 35.6062 51.6652 35.2837 50.9999 34.8731C50.8383 34.7734 50.7062 34.4562 50.7062 34.1682C50.7062 33.4194 49.4513 32.7194 49.6493 32.2039C49.7281 31.999 49.3203 31.6343 48.7053 31.3591C47.6143 30.8711 45.8317 29.9721 42.9239 29.313C41.6442 29.0229 41.0354 27.8752 39.5467 27.4505C38.9814 27.2892 36.9991 26.6285 35.1417 25.9822C28.8513 23.7936 27.9126 23.5696 28.2034 24.3264C28.408 24.8585 27.3436 25.3433 25.9704 25.3433C24.687 25.3433 20.7727 26.9633 19.564 27.9948C18.4581 28.9384 18.1078 29.0592 18.1109 28.4954C18.112 28.2938 18.5701 27.818 19.1289 27.4381C20.1209 26.7636 20.1331 26.7314 19.6416 26.0808C19.3647 25.7143 18.6049 25.1015 17.9532 24.7191ZM13.1165 17.2796C13.1165 17.8608 13.9975 17.8615 13.9975 17.2796C13.9975 16.6984 13.1165 16.6977 13.1165 17.2796ZM27.5063 21.8246C27.7486 21.9809 28.145 22.1088 28.3873 22.1088C28.7789 22.1088 28.7789 22.0772 28.3873 21.8246C28.145 21.6682 27.7486 21.5403 27.5063 21.5403C27.1147 21.5403 27.1147 21.5719 27.5063 21.8246ZM15.6476 19.3517C16.5304 20.5074 16.9342 20.6273 16.9342 19.7336C16.9342 19.1839 17.0572 19.1288 17.9567 19.2745C19.3046 19.4929 19.152 19.4513 19.6426 16.8398C16.1558 16.8398 13.5441 16.598 15.6476 19.3517ZM20.596 20.9596C20.7963 20.636 19.8482 20.0652 19.1105 20.0652C18.6413 20.0652 18.6431 20.1071 19.1367 20.6517C19.7073 21.2811 20.3173 21.4099 20.596 20.9596Z" fill="black"/>
<path d="M20.4256 32.0403C20.6061 32.9016 20.674 33.735 20.5766 33.8924C20.3074 34.3272 20.1851 34.0824 19.6814 32.1005C19.3496 30.795 19.3079 30.1862 19.5347 29.9598C19.8962 29.5987 19.9307 29.6793 20.4256 32.0403Z" fill="black"/>
<path d="M71.167 20.337C71.5717 19.9329 73.3848 20.1032 73.5346 20.5594C73.7242 21.1366 70.1908 21.3116 71.167 20.337Z" fill="black"/>
<path d="M33.6816 33.1041C33.6816 33.8401 26.9204 33.4025 26.9204 33.2461C26.9146 32.6112 27.7875 32.4448 30.3294 32.5962C33.1821 32.7662 33.4353 32.661 32.6548 31.6307C32.1582 30.9751 32.0776 30.1485 32.4857 29.8966C32.6401 29.8013 33.251 29.9255 33.8431 30.1725C35.2162 30.7454 35.1859 30.753 34.9686 29.8887C34.7925 29.1878 34.8406 29.157 36.0643 29.1849C37.7342 29.223 38.7367 29.5149 38.9025 30.0114C38.9996 30.3023 38.8454 30.365 38.3369 30.2416C36.4602 29.7863 36.0227 29.5674 36.0227 30.1501C36.0227 30.4094 36.1548 30.6217 36.3164 30.6217C36.4779 30.6217 36.61 30.8856 36.61 31.2082C36.61 31.9259 36.6728 31.9262 34.8208 31.1973C33.9862 30.8688 33.2416 30.6618 33.1661 30.7372C33.0906 30.8126 33.2633 31.2706 33.5499 31.755C33.9872 32.4943 34.0084 32.7109 33.6816 33.1041Z" fill="black"/>
<path d="M41.4707 36.4612C41.2582 36.8046 40.0862 36.6182 39.1062 36.085C38.5369 35.7753 38.5398 35.7624 39.2021 35.6624C39.6592 35.5935 39.8309 35.4178 39.721 35.1318C39.1803 33.725 43.0106 35.1775 43.2792 34.9092C43.3545 34.834 43.1224 34.3757 42.7634 33.8909C41.9053 32.732 42.1684 31.9746 43.3678 32.1504C44.0689 32.2532 44.2454 32.1712 44.2454 31.7433C44.2454 31.3163 44.4688 31.2117 45.3467 31.2275C47.8026 31.2718 43.8806 31.6553 45.6379 32.6372C46.4845 33.1103 45.79 33.382 44.6372 33.0287C43.2157 32.5931 42.9312 32.8273 43.6528 33.8393C44.5597 35.111 44.4324 35.606 43.1983 35.606C42.6224 35.606 41.8955 35.4695 41.5831 35.3025C40.9657 34.9726 40.8162 35.2902 41.3419 35.8151C41.5216 35.9945 41.5797 36.2853 41.4707 36.4612Z" fill="black"/>
<path d="M99.3084 23.2863C89.5721 18.1677 86.5816 16.5219 86.5816 16.5219C86.5816 16.5219 71.2806 8.78929 64.0681 5.69101C51.8174 0.428184 49.8913 0.822331 50.6173 0.0974702C50.9163 -0.201191 52.6188 0.196945 55.1112 1.14841C68.1025 6.10765 78.2829 11.6681 83.3035 14.0297C93.2405 18.7039 95.6395 20.7227 102.539 24.1252C103.857 24.7756 105.737 26.2229 106.189 26.2229C106.362 26.2229 106.503 26.2781 106.503 26.3455C106.503 26.542 106.934 27.3958 106.667 27.3958C106.346 27.3958 104.651 26.4707 103.713 25.7841C103.229 25.4293 101.247 24.3053 99.3084 23.2863Z" fill="black"/>
<path d="M54.4504 8.08541C57.8204 8.20931 56.2231 9.47178 52.6153 8.63676C49.9901 8.02912 51.5363 9.63867 52.2221 9.86693C52.7929 10.0569 52.2499 11.0351 51.662 10.876C49.4997 10.2903 49.4403 10.3003 49.6245 11.2198C49.7479 11.8357 49.6478 12.2174 49.2742 12.555C48.5995 13.1645 48.2196 13.1507 46.1542 12.4412C45.2153 12.1186 44.4247 11.8547 44.3971 11.8547C44.3696 11.8547 44.4023 12.2296 44.4696 12.6879C44.5992 13.569 44.7342 13.4721 41.9173 14.5206C41.2057 14.7854 40.5394 15.3678 40.5503 15.4003C39.8145 16.2122 37.4497 16.2314 39.4733 14.9161C40.7635 14.0777 40.4879 13.7422 42.0176 13.5138C43.5679 13.2823 43.859 12.9376 43.2664 12.0346C42.8182 11.3517 42.8214 11.2938 43.3158 11.1372C44.0563 10.9025 47.0209 12.13 48.024 12.1408C48.6093 12.1469 48.6875 12.0438 48.5192 11.4883C47.9153 9.49547 48.4411 10.0696 50.791 9.82602C50.9184 9.81293 50.7513 9.51129 50.4195 9.15573C48.8696 7.49469 51.2743 7.96871 54.4504 8.08541Z" fill="black"/>
</svg>
