<svg width="107" height="53" viewBox="0 0 107 53" fill="none" xmlns="http://www.w3.org/2000/svg">
<path d="M51.9489 16.3115C50.6099 16.2347 50.3559 16.1227 50.1207 15.5051C49.7447 14.5175 49.2457 14.6043 49.2457 15.6571C49.2457 16.6789 49.9095 17.1336 51.4014 17.1336C52.2562 17.1336 52.3977 17.223 52.2762 17.6869C52.12 18.2834 52.4231 18.5606 53.7976 19.0779C55.037 19.5443 55.065 19.5417 55.3921 18.9315C55.7748 18.2175 55.5352 18.0133 54.315 18.0133C53.3972 18.0133 53.3228 17.9472 53.4095 17.2069C53.501 16.4261 53.4546 16.3977 51.9489 16.3115Z" fill="black"/>
<path d="M48.8459 20.799C48.6297 20.2365 47.7774 20.2232 47.7774 20.7823C47.7774 21.621 48.9905 22.1335 50.5021 21.9333C51.7155 21.7726 52.0022 21.8362 52.5082 22.3784C52.5082 22.5147 53.6508 23.3849 53.6508 22.2581C53.6508 21.5953 52.6415 21.2388 50.7648 21.2388C49.4802 21.2388 48.97 21.1218 48.8459 20.799Z" fill="black"/>
<path d="M98.45 13.2561C95.8092 11.9156 94.763 10.2909 91.1789 9.20761C90.0952 8.88 89.1293 8.48406 89.0325 8.32765C88.7279 7.83552 84.5549 7.98477 83.7416 8.5169C82.8945 9.07108 82.7241 9.98971 83.5317 9.64798C85.8601 8.66263 87.4655 8.52021 88.4506 9.21167C88.6122 9.32505 89.6033 9.6505 90.6531 9.935C93.1466 10.6106 92.0152 10.3021 98.9079 14.6408C104.254 18.0056 105.925 19.288 105.922 20.0226C105.919 20.7031 104.672 21.4682 99.4211 24.0113C94.1959 26.542 93.4147 27.0692 93.1575 28.2389C93.0525 28.7157 92.6772 29.2093 92.283 29.3886C91.7953 29.6104 91.5352 30.0406 91.3979 30.8524C91.2594 31.6709 90.8493 32.3429 89.9738 33.1856C85.6725 37.3263 65.7354 43.8296 62.4609 45.5444C59.9871 46.8399 61.5613 45.8927 50.1101 50.4291C48.728 50.9767 46.6209 51.6297 45.4276 51.8804C43.545 52.2758 43.2265 52.2802 43.0211 51.9138C42.7941 51.5086 37.2989 47.9037 34.4048 46.9373C32.1137 46.1722 30.6442 44.4031 30.118 44.4031C29.6934 44.4031 17.9523 38.5386 16.5435 38.5386C16.2327 38.5386 16.0612 38.293 16.0612 37.8481C16.0612 37.0622 17.6301 35.6064 18.477 35.6064C18.7852 35.6064 19.2826 35.1581 19.6339 34.5636C20.077 33.8138 20.3836 33.5761 20.7253 33.7177C20.9866 33.8261 22.8523 34.5038 24.8713 35.2236C30.192 37.1208 30.7243 37.3782 31.5428 38.4496C32.5904 39.821 33.4269 39.4001 33.3196 39.1984C32.7586 38.1439 33.0287 36.8062 28.8358 35.4499C28.1898 35.2409 26.1414 34.5244 24.2839 33.8577C17.1919 31.3122 16.9474 31.2517 12.9475 31.0534C7.77062 30.7967 6.7867 30.0351 4.45347 30.0351C2.99398 30.0351 2.82198 30.0927 3.1397 30.475C3.34859 30.7263 3.98895 30.9148 4.63375 30.9148C6.45319 30.9148 6.63192 31.6544 12.0966 31.9063C16.9118 32.1282 17.5352 32.6657 19.2915 33.1774C20.2446 33.4551 16.7836 35.588 14.0055 36.4351C10.9614 37.3633 9.77407 37.8552 9.49291 38.3046C8.98699 39.1134 9.47521 39.2413 11.6119 38.86C14.7145 38.3065 16.16 38.7628 25.071 43.1086C30.8992 45.951 29.8647 45.0442 31.1179 46.1429C32.5921 47.4352 36.2194 48.4458 37.6458 49.5014C38.968 50.4798 41.1072 51.5326 42.2564 52.4821C43.0264 53.1184 43.1112 53.1257 45.1931 52.7363C46.3722 52.5158 47.9316 52.0731 48.6584 51.7525C50.4499 50.9622 58.4059 47.9811 60.4052 47.3509C64.5765 46.036 59.8657 47.2123 71.1242 43.1072C72.7393 42.5183 74.435 41.8432 74.8923 41.607C75.8695 41.1023 76.7592 41.0502 76.9058 41.4892C77.0749 41.9957 78.0018 41.1776 79.6237 41.1776C80.1588 41.1776 80.7725 40.9659 80.9876 40.7071C81.6512 39.9087 86.6015 37.7229 88.157 37.5415C89.2192 37.4176 89.8042 37.1668 90.272 36.6349C90.6277 36.2305 91.0448 35.8996 91.1989 35.8996C91.3531 35.8996 91.41 35.6358 91.3256 35.3132C91.2411 34.9906 91.315 34.7268 91.4897 34.7268C91.6644 34.7268 92.2745 34.3172 92.8455 33.8167C93.9085 32.8847 94.2307 31.7945 93.443 31.7945C92.7598 31.7945 92.7122 30.6216 94.4723 30.6216C95.1263 30.6216 96.8202 29.2536 96.8202 28.7255C96.8202 27.9651 95.9836 27.575 95.1584 27.9505C94.7385 28.142 94.3248 28.2277 94.239 28.142C93.8648 27.7684 95.2632 26.8379 98.635 25.2169C105.503 21.9151 105.832 21.7288 106.496 20.7614C106.882 20.1979 107.077 19.5912 106.972 19.2772C106.719 18.5235 101.342 14.724 98.45 13.2561ZM14.7931 37.6884C14.5776 37.9793 14.2393 38.0855 13.9033 37.9678C13.4192 37.7983 13.4099 37.7376 13.8161 37.401C14.0662 37.1937 14.4666 37.068 14.7058 37.1216C15.0517 37.1992 15.0696 37.3152 14.7931 37.6884ZM79.3469 40.298C78.5386 40.6448 78.2512 40.6448 78.4659 40.298C78.5657 40.1367 78.9369 40.014 79.2908 40.0254C79.9112 40.0452 79.9132 40.055 79.3469 40.298ZM86.8355 35.8996C86.8355 35.5119 87.7165 35.5119 87.7165 35.8996C87.7165 36.2874 86.8355 36.2874 86.8355 35.8996ZM92.538 33.0826C90.706 33.7846 91.7857 32.0877 92.6208 32.0877C93.1611 32.0877 93.0961 32.8688 92.538 33.0826Z" fill="black"/>
<path d="M46.4317 18.8675C47.3135 17.8211 47.1967 17.3267 46.1605 17.7201C45.6217 17.9247 45.3848 17.8835 45.1996 17.553C44.883 16.988 42.785 16.6136 42.785 17.1221C42.785 17.3196 43.0493 17.5502 43.3724 17.6345C44.0067 17.8002 44.1367 18.1621 43.666 18.4525C42.9905 18.8694 43.4243 19.2024 44.4038 19.0189C45.276 18.8556 45.4071 18.8988 45.2534 19.2989C44.9541 20.0775 45.6163 19.8351 46.4317 18.8675Z" fill="black"/>
<path d="M89.0468 24.7192C90.2991 23.9845 95.6455 18.6114 95.6455 18.0877C95.6455 17.6196 93.6375 15.9606 93.0657 15.9565C92.7887 15.9545 91.7691 15.5404 90.8 15.0364C89.3317 14.2728 88.6083 14.0963 86.4602 13.9776C82.0306 13.7328 84.9712 13.5518 79.6636 10.0922C78.4046 9.27151 76.9593 8.20185 76.4518 7.71506C75.0408 6.36165 72.4326 4.655 71.1241 4.22892C69.3523 3.65202 68.4675 2.70223 66.7191 2.18758C63.8207 1.33454 63.1422 0.122884 60.1181 0.0340107C57.6426 -0.0386637 57.4108 0.561762 59.8174 0.81292C61.0247 0.938898 62.2258 1.33089 63.5427 2.02864C64.6116 2.59498 65.6601 3.05842 65.8728 3.05842C66.8406 3.05842 72.9434 6.46398 75.064 8.18745C79.0324 11.4127 82.4476 12.9596 83.8838 15.6391C84.2824 16.3828 84.3036 18.4556 84.3393 19.3045C82.1583 19.9532 78.5004 20.9831 76.2634 22.0448C70.3523 24.8499 58.4059 28.7805 53.504 30.9249C52.6964 31.2782 50.1088 32.2041 47.7537 32.9826C42.4232 34.7448 35.1493 38.3644 33.7567 39.9479C32.0281 41.9135 31.2543 42.5722 31.2543 43.0548C31.612 43.412 32.5492 43.2109 33.6137 42.5485C34.7267 41.856 38.6266 39.7475 42.3329 37.8343C45.195 36.357 44.4831 37.1189 46.6695 35.9549C48.999 34.7148 52.493 33.5395 54.1935 33.424C55.0257 33.3674 55.7065 33.3701 55.7065 33.4299C55.7065 33.4897 55.31 33.7434 54.8255 33.9935C53.754 34.5468 53.6583 35.1027 54.6786 34.847C55.4492 34.6539 55.6396 34.9693 55.086 35.5221C54.4963 36.1108 55.1289 36.5618 56.3204 36.4023C57.0806 36.3005 57.5561 36.3847 57.7866 36.662C58.1669 37.1195 59.5242 37.2264 59.5242 36.7989C59.5242 36.3984 58.3495 36.2804 58.3495 35.8798C58.3495 35.7294 57.7548 35.6063 57.028 35.6063C55.787 35.6063 55.3348 35.2838 56.0001 34.8732C56.1617 34.7735 56.2938 34.4564 56.2938 34.1683C56.2938 33.4195 57.5487 32.7195 57.3507 32.204C57.2719 31.9992 57.6797 31.6344 58.2947 31.3593C59.3857 30.8712 61.1683 29.9722 64.0761 29.3132C65.3558 29.023 65.9646 27.8753 67.4533 27.4506C68.0186 27.2893 70.0009 26.6286 71.8583 25.9824C78.1487 23.7937 79.0874 23.5697 78.7965 24.3265C78.592 24.8587 79.6564 25.3434 81.0296 25.3434C82.313 25.3434 86.2273 26.9634 87.436 27.9949C88.5419 28.9386 88.8922 29.0593 88.8891 28.4955C88.888 28.2939 88.4299 27.8181 87.8711 27.4382C86.8791 26.7637 86.8669 26.7315 87.3584 26.081C87.6353 25.7144 88.3951 25.1017 89.0468 24.7192ZM93.8835 17.2797C93.8835 17.8609 93.0025 17.8616 93.0025 17.2797C93.0025 16.6985 93.8835 16.6978 93.8835 17.2797ZM79.4937 21.8247C79.2514 21.981 78.855 22.1089 78.6127 22.1089C78.2211 22.1089 78.2211 22.0773 78.6127 21.8247C78.855 21.6683 79.2514 21.5404 79.4937 21.5404C79.8853 21.5404 79.8853 21.572 79.4937 21.8247ZM91.3524 19.3518C90.4696 20.5075 90.0658 20.6274 90.0658 19.7338C90.0658 19.184 89.9428 19.1289 89.0433 19.2746C87.6954 19.493 87.848 19.4514 87.3574 16.8399C90.8442 16.8399 93.4559 16.5982 91.3524 19.3518ZM86.404 20.9597C86.2037 20.6361 87.1518 20.0654 87.8895 20.0654C88.3587 20.0654 88.3569 20.1072 87.8633 20.6518C87.2927 21.2812 86.6827 21.41 86.404 20.9597Z" fill="black"/>
<path d="M86.5744 32.0404C86.3939 32.9017 86.326 33.7352 86.4234 33.8926C86.6926 34.3274 86.8149 34.0825 87.3186 32.1006C87.6504 30.7951 87.6921 30.1863 87.4653 29.9599C87.1038 29.5989 87.0693 29.6794 86.5744 32.0404Z" fill="black"/>
<path d="M35.8331 20.3371C35.4283 19.933 33.6153 20.1033 33.4655 20.5596C33.2759 21.1368 36.8093 21.3118 35.8331 20.3371Z" fill="black"/>
<path d="M73.3184 33.1042C73.3184 33.8402 80.0796 33.4027 80.0796 33.2462C80.0854 32.6113 79.2125 32.4449 76.6706 32.5963C73.8179 32.7663 73.5647 32.6612 74.3452 31.6308C74.8418 30.9752 74.9224 30.1486 74.5143 29.8967C74.3599 29.8014 73.749 29.9256 73.1569 30.1727C71.7838 30.7455 71.8141 30.7531 72.0314 29.8888C72.2075 29.1879 72.1594 29.1571 70.9357 29.185C69.2658 29.2231 68.2633 29.515 68.0975 30.0116C68.0004 30.3024 68.1546 30.3651 68.6631 30.2418C70.5398 29.7864 70.9773 29.5675 70.9773 30.1502C70.9773 30.4096 70.8452 30.6218 70.6836 30.6218C70.5221 30.6218 70.39 30.8857 70.39 31.2083C70.39 31.926 70.3272 31.9263 72.1792 31.1974C73.0138 30.869 73.7584 30.6619 73.8339 30.7373C73.9094 30.8127 73.7367 31.2707 73.4501 31.7551C73.0128 32.4944 72.9916 32.711 73.3184 33.1042Z" fill="black"/>
<path d="M65.5293 36.4614C65.7418 36.8047 66.9138 36.6183 67.8938 36.0851C68.4631 35.7754 68.4602 35.7625 67.7979 35.6626C67.3408 35.5936 67.1691 35.4179 67.279 35.1319C67.8197 33.7251 63.9894 35.1776 63.7208 34.9093C63.6455 34.8341 63.8776 34.3759 64.2366 33.891C65.0947 32.7322 64.8316 31.9747 63.6322 32.1505C62.9311 32.2533 62.7546 32.1714 62.7546 31.7435C62.7546 31.3164 62.5312 31.2118 61.6533 31.2276C59.1974 31.2719 63.1194 31.6554 61.3621 32.6373C60.5155 33.1104 61.21 33.3821 62.3628 33.0288C63.7843 32.5932 64.0688 32.8275 63.3472 33.8394C62.4403 35.1111 62.5676 35.6062 63.8017 35.6062C64.3776 35.6062 65.1045 35.4696 65.4169 35.3026C66.0343 34.9727 66.1838 35.2904 65.6581 35.8152C65.4784 35.9946 65.4203 36.2854 65.5293 36.4614Z" fill="black"/>
<path d="M7.69156 23.2864C17.4279 18.1678 20.4184 16.5221 20.4184 16.5221C20.4184 16.5221 35.7194 8.78941 42.9319 5.69113C55.1826 0.428306 57.1087 0.822453 56.3827 0.0975923C56.0837 -0.201069 54.3812 0.197067 51.8888 1.14853C38.8975 6.10777 28.7171 11.6682 23.6965 14.0298C13.7595 18.704 11.3605 20.7228 4.46119 24.1253C3.14251 24.7757 1.26303 26.2231 0.810846 26.2231C0.638053 26.2231 0.496656 26.2782 0.496656 26.3457C0.496656 26.5422 0.0657901 27.396 0.332977 27.396C0.653531 27.396 2.34891 26.4708 3.28652 25.7843C3.77108 25.4294 5.75335 24.3054 7.69156 23.2864Z" fill="black"/>
<path d="M52.5496 8.08553C49.1796 8.20943 50.7769 9.4719 54.3847 8.63688C57.0099 8.02925 55.4637 9.63879 54.7779 9.86705C54.2071 10.057 54.7501 11.0353 55.338 10.8761C57.5003 10.2904 57.5597 10.3005 57.3755 11.22C57.2521 11.8358 57.3522 12.2175 57.7258 12.5551C58.4005 13.1647 58.7804 13.1508 60.8458 12.4413C61.7847 12.1188 62.5753 11.8548 62.6029 11.8548C62.6304 11.8548 62.5977 12.2297 62.5304 12.688C62.4008 13.5692 62.2658 13.4722 65.0827 14.5207C65.7943 14.7855 66.4606 15.3679 66.4497 15.4005C67.1855 16.2123 69.5503 16.2315 67.5267 14.9162C66.2365 14.0778 66.5121 13.7423 64.9824 13.5139C63.4321 13.2825 63.141 12.9377 63.7336 12.0347C64.1818 11.3518 64.1786 11.294 63.6842 11.1373C62.9437 10.9026 59.9791 12.1301 58.976 12.1409C58.3907 12.147 58.3125 12.044 58.4808 11.4884C59.0847 9.49559 58.5589 10.0697 56.209 9.82614C56.0816 9.81305 56.2487 9.51141 56.5805 9.15585C58.1304 7.49481 55.7257 7.96883 52.5496 8.08553Z" fill="black"/>
</svg>
